<?xml version="1.0"?>
<svg width="1024" height="1024" xmlns="http://www.w3.org/2000/svg" xmlns:svg="http://www.w3.org/2000/svg">
 <g class="layer" display="inline">
  <title>Layer 1</title>
  <path d="m324,349l-1,1l-2,0l0,1l-1,1l0,2l-1,1l0,2l-1,1l0,2l-1,1l0,2l-1,1l0,2l-1,1l0,2l-1,1l0,1l-1,1l0,2l-1,1l0,2l-1,1l0,2l-1,1l0,2l-1,1l0,2l-1,1l0,1l-1,1l0,2l-1,1l0,2l-1,1l0,2l-1,1l0,1l-1,1l0,2l-1,1l0,2l-1,1l0,2l-1,1l0,1l-1,1l0,2l-1,1l0,2l-1,1l0,1l-1,1l0,2l-1,1l0,2l-1,1l0,2l-1,1l0,1l-1,1l0,2l-1,1l0,1l-1,1l0,2l-1,1l0,2l-1,1l0,1l-1,1l0,2l-1,1l0,2l-1,1l0,1l-1,1l0,2l-1,1l0,2l-1,1l0,1l-1,1l0,2l-1,1l0,1l-1,1l0,2l-1,1l0,2l-1,1l0,1l-1,1l0,2l-1,1l0,2l-1,1l0,1l-1,1l0,2l-1,1l0,1l-1,1l0,2l-1,1l0,2l-1,1l0,1l-1,1l0,2l-1,1l0,2l-1,1l0,1l-1,1l0,2l-1,1l0,1l-1,1l0,2l-1,1l0,2l-1,1l0,1l-1,1l0,2l-1,1l0,1l-1,1l0,2l-1,1l0,2l-1,1l0,1l-1,1l0,2l-1,1l0,1l-1,1l0,2l-1,1l0,2l-1,1l0,1l-1,1l0,2l-1,1l0,1l-1,1l0,2l-1,1l0,2l-1,1l0,1l-1,1l0,2l-1,1l0,1l-1,1l0,2l-1,1l0,2l-1,1l0,1l-1,1l0,2l-1,1l0,1l-1,1l0,2l-1,1l0,1l-1,1l0,2l-1,1l0,2l-1,1l0,1l-1,1l0,2l-1,1l0,1l-1,1l0,2l-1,1l0,1l-1,1l0,2l-1,1l0,1l-1,1l0,2l-1,1l0,2l-1,1l0,1l-1,1l0,2l-1,1l0,1l-1,1l0,1l-1,1l0,2l-1,1l0,1l-1,1l0,1l-1,1l0,1l-1,1l0,2l-1,1l0,1l-1,1l0,1l-2,2l0,1l-2,2l0,1l-4,4l-1,0l-3,3l-1,0l-1,1l-1,0l-1,1l-1,0l-1,1l-2,0l-1,1l-3,0l-1,1l-3,0l0,1l-1,1l0,9l2,2l86,0l2,-2l0,-7l-1,-1l0,-2l-1,-1l-2,0l-1,-1l-6,0l-1,-1l-2,0l-1,-1l-1,0l-1,-1l-1,0l-2,-2l-1,0l-1,-1l0,-1l-3,-3l0,-1l-1,-1l0,-3l-1,-1l0,-7l1,-1l0,-2l1,-1l0,-2l1,-1l0,-2l1,-1l0,-1l1,-1l0,-2l1,-1l0,-1l1,-1l0,-2l1,-1l0,-2l1,-1l0,-1l1,-1l0,-2l1,-1l0,-1l1,-1l0,-2l1,-1l0,-2l1,-1l0,-1l1,-1l0,-2l1,-1l0,-2l1,-1l0,-1l1,-1l0,-2l1,-1l0,-1l1,-1l0,-2l1,-1l0,-2l1,-1l0,-1l1,-1l0,-2l1,-1l109,0l1,1l0,1l1,1l0,1l1,1l0,2l1,1l0,2l1,1l0,2l1,1l0,2l1,1l0,2l1,1l0,2l1,1l0,2l1,1l0,2l1,1l0,2l1,1l0,2l1,1l0,2l1,1l0,2l1,1l0,2l1,1l0,2l1,1l0,2l1,1l0,2l1,1l0,2l1,1l0,2l1,1l0,3l1,1l0,2l1,1l0,3l1,1l0,4l-1,1l0,2l-6,6l-2,0l-1,1l-3,0l-1,1l-4,0l-1,1l0,12l1,0l1,1l97,0l1,-1l0,-10l-2,-2l-2,0l-1,-1l-3,0l-1,-1l-1,0l-1,-1l-2,0l-1,-1l-1,0l-1,-1l-1,0l-3,-3l-1,0l-3,-3l0,-1l-2,-2l0,-1l-1,-1l0,-1l-1,-1l0,-2l-1,-1l0,-2l-1,-1l0,-1l-1,-1l0,-2l-1,-1l0,-1l-1,-1l0,-2l-1,-1l0,-2l-1,-1l0,-1l-1,-1l0,-2l-1,-1l0,-2l-1,-1l0,-1l-1,-1l0,-2l-1,-1l0,-2l-1,-1l0,-1l-1,-1l0,-2l-1,-1l0,-2l-1,-1l0,-1l-1,-1l0,-2l-1,-1l0,-1l-1,-1l0,-2l-1,-1l0,-2l-1,-1l0,-2l-1,-1l0,-1l-1,-1l0,-2l-1,-1l0,-2l-1,-1l0,-2l-1,-1l0,-1l-1,-1l0,-2l-1,-1l0,-2l-1,-1l0,-2l-1,-1l0,-2l-1,-1l0,-1l-1,-1l0,-2l-1,-1l0,-2l-1,-1l0,-1l-1,-1l0,-2l-1,-1l0,-2l-1,-1l0,-2l-1,-1l0,-1l-1,-1l0,-2l-1,-1l0,-2l-1,-1l0,-2l-1,-1l0,-1l-1,-1l0,-2l-1,-1l0,-2l-1,-1l0,-2l-1,-1l0,-1l-1,-1l0,-2l-1,-1l0,-2l-1,-1l0,-1l-1,-1l0,-2l-1,-1l0,-2l-1,-1l0,-2l-1,-1l0,-1l-1,-1l0,-2l-1,-1l0,-1l-1,-1l0,-2l-1,-1l0,-2l-1,-1l0,-1l-1,-1l0,-2l-1,-1l0,-2l-1,-1l0,-1l-1,-1l0,-2l-1,-1l0,-2l-1,-1l0,-1l-1,-1l0,-2l-1,-1l0,-2l-1,-1l0,-2l-1,-1l0,-1l-1,-1l0,-2l-1,-1l0,-2l-1,-1l0,-1l-1,-1l0,-2l-1,-1l0,-2l-1,-1l0,-1l-1,-1l0,-2l-1,-1l0,-2l-1,-1l0,-2l-1,-1l0,-1l-1,-1l0,-2l-1,-1l0,-2l-1,-1l0,-2l-1,-1l0,-1l-1,-1l0,-2l-1,-1l0,-2l-1,-1l0,-2l-1,-1l0,-1l-1,-1l0,-2l-1,-1l0,-2l-1,-1l0,-2l-1,-1l0,-1l-1,-1l0,-2l-1,-1l0,-2l-1,-1l0,-2l-1,-1l0,-1l-1,-1l0,-2l-1,-1l0,-2l-1,-1l0,-2l-1,-1l0,-1l-1,-1l0,-2l-1,-1l0,-2l-1,-1l0,-2l-1,-1l0,-1l-1,-1l-3,0l-1,-1l-28,0zm630,-135l-13,13l0,1l-17,17l0,1l-8,8l-1,0l-12,12l-1,0l-7,7l-1,0l-5,5l-1,0l-4,4l-1,0l-4,4l-1,0l-4,4l-1,0l-3,3l-1,0l-3,3l-1,0l-3,3l-1,0l-2,2l-1,0l-3,3l-1,0l-3,3l-1,0l-2,2l-1,0l-2,2l-1,0l-2,2l-1,0l-3,3l-1,0l-2,2l-1,0l-2,2l-1,0l-3,3l-1,0l-2,2l-1,0l-3,3l-1,0l-2,2l-1,0l-3,3l-1,0l-3,3l-1,0l-3,3l-1,0l-3,3l-1,0l-3,3l-1,0l-4,4l-1,0l-4,4l-1,0l-5,5l-1,0l-6,6l-1,0l-11,11l-1,0l-16,16l0,1l-8,8l0,1l-5,5l0,1l-4,4l0,1l-3,3l0,1l-3,3l0,1l-3,3l0,1l-2,2l0,1l-2,2l0,1l-2,2l0,1l-2,2l0,1l-2,2l0,1l-2,2l0,1l-1,1l0,1l-2,2l0,1l-1,1l0,1l-1,1l0,1l-2,2l0,1l-1,1l0,1l-1,1l0,1l-1,1l0,1l-1,1l0,1l-1,1l0,1l-1,1l0,1l-1,1l0,1l-1,1l0,1l-1,1l0,1l-1,1l0,1l-1,1l0,2l-1,1l0,1l-1,1l0,1l-1,1l0,2l-1,1l0,1l-1,1l0,2l-1,1l0,2l-1,1l0,2l-1,1l0,1l-1,1l0,2l-1,1l0,2l-1,1l0,3l-1,1l0,2l-1,1l0,3l-1,1l0,3l-1,1l0,3l-1,1l0,3l-1,1l0,4l-1,1l0,3l-1,1l0,4l-1,1l0,4l-1,1l0,4l-1,1l0,6l-1,1l-1,-1l0,-10l-1,-1l0,-21l-1,-1l0,-18l-2,-2l-57,0l-1,1l0,9l2,2l3,0l1,1l2,0l1,1l2,0l1,1l1,0l1,1l1,0l1,1l1,0l1,1l1,0l2,2l1,0l6,6l0,1l2,2l0,1l1,1l0,2l1,1l0,4l1,1l0,74l-1,1l0,14l-1,1l-1,0l-1,1l-1,0l-1,1l-2,0l-1,1l-1,0l-1,1l-2,0l-1,1l-2,0l-1,1l-3,0l-1,1l-5,0l-1,1l-9,0l-1,1l-10,0l-1,-1l-8,0l-1,-1l-4,0l-1,-1l-2,0l-1,-1l-2,0l-1,-1l-2,0l-1,-1l-2,0l-1,-1l-1,0l-1,-1l-1,0l-1,-1l-1,0l-1,-1l-1,0l-2,-2l-1,0l-2,-2l-1,0l-4,-4l-1,0l-7,-7l0,-1l-4,-4l0,-1l-3,-3l0,-1l-1,-1l0,-1l-2,-2l0,-1l-1,-1l0,-1l-1,-1l0,-1l-1,-1l0,-1l-1,-1l0,-1l-1,-1l0,-1l-1,-1l0,-2l-1,-1l0,-1l-1,-1l0,-2l-1,-1l0,-2l-1,-1l0,-3l-1,-1l0,-3l-1,-1l0,-3l-1,-1l0,-4l-1,-1l0,-4l-1,-1l0,-6l-1,-1l0,-9l-1,-1l0,-13l-1,-1l0,-39l1,-1l0,-13l1,-1l0,-9l1,-1l0,-6l1,-1l0,-5l1,-1l0,-3l1,-1l0,-4l1,-1l0,-3l1,-1l0,-2l1,-1l0,-3l1,-1l0,-2l1,-1l0,-1l1,-1l0,-2l1,-1l0,-1l1,-1l0,-1l1,-1l0,-1l1,-1l0,-1l1,-1l0,-1l1,-1l0,-1l1,-1l0,-1l2,-2l0,-1l2,-2l0,-1l3,-3l0,-1l5,-5l0,-1l4,-4l1,0l5,-5l1,0l2,-2l1,0l1,-1l1,0l2,-2l1,0l1,-1l1,0l1,-1l2,0l1,-1l1,0l1,-1l3,0l1,-1l3,0l1,-1l6,0l1,-1l26,0l1,1l6,0l1,1l4,0l1,1l2,0l1,1l2,0l1,1l2,0l1,1l1,0l1,1l1,0l1,1l1,0l1,1l1,0l2,2l1,0l2,2l1,0l13,13l0,1l2,2l0,1l2,2l0,1l2,2l0,1l1,1l0,1l1,1l0,1l2,2l0,1l1,1l0,1l1,1l0,1l1,1l0,1l1,1l0,1l1,1l0,1l1,1l3,0l2,-2l0,-1l1,-1l0,-2l1,-1l0,-2l1,-1l0,-1l1,-1l0,-2l1,-1l0,-1l1,-1l0,-2l1,-1l0,-2l1,-1l0,-1l1,-1l0,-2l1,-1l0,-2l1,-1l0,-1l1,-1l0,-2l1,-1l0,-1l1,-1l0,-6l-2,-2l-1,0l-5,-5l-1,0l-3,-3l-1,0l-2,-2l-1,0l-2,-2l-1,0l-2,-2l-1,0l-1,-1l-1,0l-1,-1l-1,0l-2,-2l-1,0l-1,-1l-2,0l-1,-1l-1,0l-1,-1l-1,0l-1,-1l-1,0l-1,-1l-2,0l-1,-1l-2,0l-1,-1l-1,0l-1,-1l-3,0l-1,-1l-2,0l-1,-1l-3,0l-1,-1l-3,0l-1,-1l-4,0l-1,-1l-5,0l-1,-1l-8,0l-1,-1l-25,0l-1,1l-9,0l-1,1l-5,0l-1,1l-4,0l-1,1l-3,0l-1,1l-3,0l-1,1l-2,0l-1,1l-2,0l-1,1l-2,0l-1,1l-1,0l-1,1l-2,0l-1,1l-1,0l-1,1l-2,0l-1,1l-1,0l-1,1l-1,0l-1,1l-1,0l-2,2l-1,0l-1,1l-1,0l-1,1l-1,0l-2,2l-1,0l-2,2l-1,0l-3,3l-1,0l-4,4l-1,0l-13,13l0,1l-4,4l0,1l-3,3l0,1l-2,2l0,1l-2,2l0,1l-1,1l0,1l-2,2l0,1l-1,1l0,1l-1,1l0,1l-1,1l0,1l-2,2l0,2l-1,1l0,1l-1,1l0,1l-1,1l0,1l-1,1l0,2l-1,1l0,1l-1,1l0,2l-1,1l0,2l-1,1l0,2l-1,1l0,2l-1,1l0,3l-1,1l0,2l-1,1l0,3l-1,1l0,4l-1,1l0,4l-1,1l0,4l-1,1l0,6l-1,1l0,7l-1,1l0,13l-1,1l0,25l1,1l0,13l1,1l0,7l1,1l0,6l1,1l0,4l1,1l0,4l1,1l0,3l1,1l0,3l1,1l0,2l1,1l0,2l1,1l0,2l1,1l0,2l1,1l0,2l1,1l0,1l1,1l0,1l1,1l0,2l1,1l0,1l1,1l0,1l1,1l0,1l1,1l0,1l2,2l0,1l1,1l0,1l1,1l0,1l2,2l0,1l2,2l0,1l3,3l0,1l4,4l0,1l12,12l1,0l4,4l1,0l3,3l1,0l2,2l1,0l2,2l1,0l2,2l1,0l1,1l1,0l1,1l1,0l1,1l1,0l1,1l1,0l1,1l1,0l1,1l1,0l1,1l1,0l1,1l1,0l1,1l2,0l1,1l2,0l1,1l1,0l1,1l3,0l1,1l2,0l1,1l2,0l1,1l3,0l1,1l4,0l1,1l4,0l1,1l6,0l1,1l28,0l1,-1l8,0l1,-1l5,0l1,-1l2,0l1,1l0,1l-1,1l0,1l-1,1l0,2l-1,1l0,1l-1,1l0,1l-1,1l0,2l-1,1l0,1l-1,1l0,1l-1,1l0,2l-1,1l0,1l-1,1l0,1l-1,1l0,2l-1,1l0,1l-1,1l0,1l-1,1l0,1l-1,1l0,2l-1,1l0,1l-1,1l0,1l-1,1l0,2l-1,1l0,1l-1,1l0,1l-1,1l0,1l-1,1l0,2l-1,1l0,1l-1,1l0,1l-1,1l0,2l-1,1l0,1l-1,1l0,1l-1,1l0,1l-1,1l0,2l-1,1l0,1l-1,1l0,1l-1,1l0,2l-1,1l0,1l-1,1l0,1l-1,1l0,2l-1,1l0,1l-1,1l0,1l-1,1l0,2l-1,1l0,1l-1,1l0,1l-1,1l0,2l-1,1l0,1l-1,1l0,1l-1,1l0,2l-1,1l0,1l-1,1l0,2l-1,1l0,2l-1,1l0,3l-1,1l0,2l-1,1l0,2l-1,1l0,2l-1,1l0,3l-1,1l0,3l-1,1l0,2l-1,1l0,3l-1,1l0,3l-1,1l0,3l-1,1l0,3l-1,1l0,4l-1,1l0,4l-1,1l0,3l2,2l1,0l4,-4l0,-1l3,-3l0,-1l3,-3l0,-1l4,-4l0,-1l3,-3l0,-1l3,-3l0,-1l3,-3l0,-1l3,-3l0,-1l2,-2l0,-1l3,-3l0,-1l2,-2l0,-1l2,-2l0,-3l1,-1l0,-11l1,-1l0,-9l1,-1l0,-6l1,-1l0,-4l1,-1l0,-3l1,-1l0,-1l1,-1l0,-2l1,-1l0,-1l1,-1l0,-2l1,-1l0,-1l1,-1l0,-2l1,-1l0,-2l1,-1l0,-1l1,-1l0,-1l1,-1l0,-2l1,-1l0,-2l1,-1l0,-1l1,-1l0,-1l1,-1l0,-2l1,-1l0,-1l1,-1l0,-2l1,-1l0,-1l1,-1l0,-1l1,-1l0,-2l1,-1l0,-1l1,-1l0,-1l1,-1l0,-2l1,-1l0,-1l1,-1l0,-1l1,-1l0,-1l1,-1l0,-2l1,-1l0,-1l1,-1l0,-1l1,-1l0,-1l1,-1l0,-1l1,-1l0,-1l1,-1l0,-2l1,-1l0,-1l1,-1l0,-1l1,-1l0,-1l1,-1l0,-1l1,-1l0,-1l1,-1l0,-1l1,-1l0,-1l1,-1l0,-1l1,-1l0,-1l1,-1l0,-1l1,-1l0,-1l1,-1l0,-1l1,-1l0,-1l1,-1l0,-1l1,-1l0,-1l1,-1l0,-1l1,-1l0,-1l1,-1l0,-1l1,-1l0,-1l1,-1l0,-1l1,-1l0,-1l2,-2l0,-1l1,-1l0,-1l1,-1l0,-1l1,-1l0,-1l1,-1l0,-1l2,-2l0,-1l1,-1l0,-1l1,-1l0,-1l1,-1l0,-1l2,-2l0,-1l1,-1l0,-1l1,-1l0,-1l2,-2l0,-1l1,-1l0,-1l1,-1l0,-1l2,-2l0,-1l1,-1l0,-1l2,-2l0,-1l1,-1l0,-1l2,-2l0,-1l2,-2l0,-1l1,-1l0,-1l2,-2l0,-1l2,-2l0,-1l1,-1l0,-1l2,-2l0,-1l2,-2l0,-1l2,-2l0,-1l2,-2l0,-1l2,-2l0,-1l2,-2l0,-1l2,-2l0,-1l2,-2l0,-1l2,-2l0,-1l2,-2l0,-1l2,-2l0,-1l3,-3l0,-1l2,-2l0,-1l2,-2l0,-1l2,-2l0,-1l3,-3l0,-1l2,-2l0,-1l2,-2l0,-1l2,-2l0,-1l3,-3l0,-1l2,-2l0,-1l3,-3l0,-1l2,-2l0,-1l3,-3l0,-1l3,-3l0,-1l2,-2l0,-1l3,-3l0,-1l3,-3l0,-1l3,-3l0,-1l3,-3l0,-1l4,-4l0,-1l3,-3l0,-1l3,-3l0,-1l3,-3l0,-1l4,-4l0,-1l3,-3l0,-1l4,-4l0,-1l4,-4l0,-1l3,-3l0,-1l4,-4l0,-1l4,-4l0,-1l4,-4l0,-1l3,-3l0,-1l5,-5l0,-1l4,-4l0,-1l4,-4l0,-1l4,-4l0,-1l5,-5l0,-1l5,-5l0,-1l5,-5l0,-1l5,-5l0,-1l6,-6l0,-1l6,-6l0,-1l6,-6l0,-1l6,-6l1,1l0,1l-2,2l0,1l-1,1l0,1l-2,2l0,1l-2,2l0,1l-2,2l0,1l-2,2l0,1l-2,2l0,1l-2,2l0,1l-2,2l0,1l-2,2l0,1l-3,3l0,1l-2,2l0,1l-2,2l0,1l-2,2l0,1l-3,3l0,1l-2,2l0,1l-3,3l0,1l-2,2l0,1l-2,2l0,1l-3,3l0,1l-2,2l0,1l-3,3l0,1l-2,2l0,1l-2,2l0,1l-3,3l0,1l-2,2l0,1l-3,3l0,1l-2,2l0,1l-3,3l0,1l-2,2l0,1l-3,3l0,1l-2,2l0,1l-2,2l0,1l-3,3l0,1l-2,2l0,1l-3,3l0,1l-2,2l0,1l-3,3l0,1l-2,2l0,1l-2,2l0,1l-3,3l0,1l-2,2l0,1l-3,3l0,1l-2,2l0,1l-2,2l0,1l-3,3l0,1l-2,2l0,1l-2,2l0,1l-3,3l0,1l-2,2l0,1l-2,2l0,1l-2,2l0,1l-3,3l0,1l-2,2l0,1l-2,2l0,1l-2,2l0,1l-2,2l0,1l-2,2l0,1l-2,2l0,1l-2,2l0,1l-3,3l0,1l-2,2l0,1l-2,2l0,1l-1,1l0,1l-2,2l0,1l-2,2l0,1l-2,2l0,1l-2,2l0,1l-2,2l0,1l-1,1l0,1l-2,2l0,1l-1,1l0,1l-2,2l0,1l-2,2l0,1l-1,1l0,1l-2,2l0,1l-1,1l0,1l-2,2l0,1l-1,1l0,1l-2,2l0,1l-1,1l0,1l-1,1l0,1l-2,2l0,1l-1,1l0,1l-2,2l0,1l-1,1l0,1l-1,1l0,1l-2,2l0,1l-1,1l0,1l-1,1l0,1l-1,1l0,1l-2,2l0,1l-1,1l0,1l-1,1l0,1l-1,1l0,1l-1,1l0,1l-1,1l0,1l-2,2l0,1l-1,1l0,1l-1,1l0,1l-1,1l0,1l-1,1l0,1l-1,1l0,1l-1,1l0,1l-1,1l0,1l-2,2l0,1l-1,1l0,1l-1,1l0,1l-1,1l0,1l-1,1l0,1l-1,1l0,1l-1,1l0,1l-1,1l0,1l-1,1l0,1l-1,1l0,1l-1,1l0,1l-1,1l0,1l-1,1l0,1l-2,2l0,1l-1,1l0,1l-1,1l0,1l-1,1l0,1l-1,1l0,1l-1,1l0,1l-1,1l0,1l-1,1l0,1l-1,1l0,1l-1,1l0,1l-1,1l0,1l-1,1l0,1l-1,1l0,1l-1,1l0,1l-1,1l0,1l-1,1l0,1l-1,1l0,1l-1,1l0,1l-1,1l0,1l-1,1l0,1l-1,1l0,1l-1,1l0,1l-1,1l0,1l-1,1l0,2l2,0l0,-1l2,-2l0,-1l3,-3l0,-1l3,-3l0,-1l3,-3l0,-1l4,-4l0,-1l15,-15l1,0l2,-2l1,0l1,-1l1,0l2,-2l1,0l1,-1l2,0l1,-1l2,0l1,-1l3,0l1,-1l2,0l1,-1l3,0l1,-1l3,0l1,-1l2,0l1,-1l3,0l1,-1l2,0l1,-1l2,0l1,-1l2,0l1,-1l1,0l1,-1l2,0l1,-1l2,0l1,-1l1,0l1,-1l2,0l1,-1l1,0l1,-1l2,0l1,-1l1,0l1,-1l1,0l1,-1l1,0l1,-1l1,0l1,-1l1,0l1,-1l1,0l1,-1l1,0l1,-1l1,0l1,-1l1,0l1,-1l1,0l1,-1l1,0l2,-2l1,0l1,-1l1,0l2,-2l1,0l1,-1l1,0l2,-2l1,0l3,-3l1,0l3,-3l1,0l4,-4l-1,-1l-35,0l-1,-1l-9,0l-1,-1l1,-1l6,0l1,-1l5,0l1,-1l4,0l1,-1l3,0l1,-1l3,0l1,-1l3,0l1,-1l2,0l1,-1l2,0l1,-1l2,0l1,-1l2,0l1,-1l1,0l1,-1l1,0l1,-1l2,0l1,-1l1,0l1,-1l1,0l1,-1l1,0l1,-1l1,0l1,-1l1,0l1,-1l1,0l2,-2l1,0l1,-1l1,0l1,-1l1,0l2,-2l1,0l2,-2l1,0l2,-2l1,0l3,-3l1,0l4,-4l1,0l7,-7l1,0l11,-11l0,-1l6,-6l0,-1l4,-4l0,-1l4,-4l0,-1l3,-3l0,-1l2,-2l0,-1l2,-2l0,-1l3,-3l0,-1l1,-1l0,-1l2,-2l0,-1l2,-2l0,-1l2,-2l0,-1l1,-1l0,-1l2,-2l0,-1l1,-1l0,-1l1,-1l0,-1l-3,0l-1,1l-4,0l-1,1l-5,0l-1,1l-6,0l-1,1l-5,0l-1,1l-6,0l-1,1l-8,0l-1,1l-9,0l-1,1l-9,0l-1,-1l1,-1l2,0l1,-1l3,0l1,-1l2,0l1,-1l2,0l1,-1l2,0l1,-1l1,0l1,-1l2,0l1,-1l2,0l1,-1l1,0l1,-1l2,0l1,-1l1,0l1,-1l1,0l1,-1l2,0l1,-1l1,0l1,-1l1,0l1,-1l1,0l1,-1l1,0l1,-1l1,0l1,-1l1,0l1,-1l1,0l1,-1l1,0l2,-2l1,0l1,-1l1,0l2,-2l1,0l2,-2l1,0l3,-3l1,0l5,-5l1,0l4,-4l0,-1l5,-5l0,-1l3,-3l0,-1l2,-2l0,-1l1,-1l0,-1l1,-1l0,-1l2,-2l0,-1l1,-1l0,-1l1,-1l0,-1l1,-1l0,-1l1,-1l0,-1l1,-1l0,-1l1,-1l0,-1l1,-1l0,-1l1,-1l0,-1l1,-1l0,-2l1,-1l0,-1l1,-1l0,-1l1,-1l0,-2l1,-1l0,-2l1,-1l0,-1l1,-1l0,-2l1,-1l0,-2l1,-1l0,-2l1,-1l0,-2l1,-1l0,-2l1,-1l0,-2l1,-1l0,-2l1,-1l0,-3l1,-1l0,-3l1,-1l0,-3l1,-1l0,-1l-2,0l-1,1l-1,0l-1,1l-2,0l-1,1l-1,0l-1,1l-1,0l-1,1l-2,0l-1,1l-1,0l-1,1l-2,0l-1,1l-2,0l-1,1l-1,0l-1,1l-2,0l-1,1l-1,0l-1,1l-2,0l-1,1l-1,0l-1,1l-2,0l-1,1l-2,0l-1,1l-2,0l-1,1l-1,0l-1,-1l2,-2l1,0l1,-1l1,0l3,-3l1,0l2,-2l1,0l3,-3l1,0l3,-3l1,0l5,-5l1,0l18,-18l0,-1l3,-3l0,-1l3,-3l0,-1l1,-1l0,-1l2,-2l0,-1l1,-1l0,-1l1,-1l0,-1l1,-1l0,-1l1,-1l0,-1l1,-1l0,-1l1,-1l0,-2l1,-1l0,-1l1,-1l0,-1l1,-1l0,-2l1,-1l0,-2l1,-1l0,-2l1,-1l0,-2l1,-1l0,-2l1,-1l0,-2l1,-1l0,-3l1,-1l0,-2l1,-1l0,-3l1,-1l0,-3l1,-1l0,-3l1,-1l0,-3l1,-1l0,-3l1,-1l0,-4l1,-1l0,-5l1,-1l0,-4l1,-1l0,-5l1,-1l0,-6l1,-1l0,-7l1,-1l0,-9l1,-1l0,-31l-1,-1l0,-8l-1,-1l0,-4l-1,-1l-2,0z" id="svg_1"/>
  <polygon cx="251" cy="501" edge="170.58" fill="#ff0000" filter="url(#svg_8_blur)" id="svg_8" orient="x" points="400.78460693359375,464.3560485839844 260.6258239746094,511.1483154296875 260.6258239746094,417.563720703125 400.78460693359375,464.3560485839844" shape="regularPoly" sides="3" stroke-width="NaN" transform="rotate(-90 330.705 464.356)"/>
 </g>
 <defs>
  <filter id="svg_8_blur">
   <feGaussianBlur in="SourceGraphic" stdDeviation="1.5"/>
  </filter>
 </defs>
 <g transform="translate(-245, -30) scale(2.35)">
  <path d="M 225 240 L 245 180 L 265 240 Z"
        fill="red" stroke="none"/>
</g>
</svg>