<svg xmlns="http://www.w3.org/2000/svg" viewBox="0 0 1024 1024" fill="black">
  <path d="M 298 322 L 297 323 L 295 323 L 295 324 L 294 325 L 294 327 L 293 328 L 293 330 L 292 331 L 292 333 L 291 334 L 291 336 L 290 337 L 290 339 L 289 340 L 289 342 L 288 343 L 288 344 L 287 345 L 287 347 L 286 348 L 286 350 L 285 351 L 285 353 L 284 354 L 284 356 L 283 357 L 283 359 L 282 360 L 282 361 L 281 362 L 281 364 L 280 365 L 280 367 L 279 368 L 279 370 L 278 371 L 278 372 L 277 373 L 277 375 L 276 376 L 276 378 L 275 379 L 275 381 L 274 382 L 274 383 L 273 384 L 273 386 L 272 387 L 272 389 L 271 390 L 271 391 L 270 392 L 270 394 L 269 395 L 269 397 L 268 398 L 268 400 L 267 401 L 267 402 L 266 403 L 266 405 L 265 406 L 265 407 L 264 408 L 264 410 L 263 411 L 263 413 L 262 414 L 262 415 L 261 416 L 261 418 L 260 419 L 260 421 L 259 422 L 259 423 L 258 424 L 258 426 L 257 427 L 257 429 L 256 430 L 256 431 L 255 432 L 255 434 L 254 435 L 254 436 L 253 437 L 253 439 L 252 440 L 252 442 L 251 443 L 251 444 L 250 445 L 250 447 L 249 448 L 249 450 L 248 451 L 248 452 L 247 453 L 247 455 L 246 456 L 246 457 L 245 458 L 245 460 L 244 461 L 244 463 L 243 464 L 243 465 L 242 466 L 242 468 L 241 469 L 241 471 L 240 472 L 240 473 L 239 474 L 239 476 L 238 477 L 238 478 L 237 479 L 237 481 L 236 482 L 236 484 L 235 485 L 235 486 L 234 487 L 234 489 L 233 490 L 233 491 L 232 492 L 232 494 L 231 495 L 231 497 L 230 498 L 230 499 L 229 500 L 229 502 L 228 503 L 228 504 L 227 505 L 227 507 L 226 508 L 226 510 L 225 511 L 225 512 L 224 513 L 224 515 L 223 516 L 223 517 L 222 518 L 222 520 L 221 521 L 221 523 L 220 524 L 220 525 L 219 526 L 219 528 L 218 529 L 218 530 L 217 531 L 217 533 L 216 534 L 216 536 L 215 537 L 215 538 L 214 539 L 214 541 L 213 542 L 213 543 L 212 544 L 212 546 L 211 547 L 211 548 L 210 549 L 210 551 L 209 552 L 209 554 L 208 555 L 208 556 L 207 557 L 207 559 L 206 560 L 206 561 L 205 562 L 205 564 L 204 565 L 204 566 L 203 567 L 203 569 L 202 570 L 202 571 L 201 572 L 201 574 L 200 575 L 200 577 L 199 578 L 199 579 L 198 580 L 198 582 L 197 583 L 197 584 L 196 585 L 196 586 L 195 587 L 195 589 L 194 590 L 194 591 L 193 592 L 193 593 L 192 594 L 192 595 L 191 596 L 191 598 L 190 599 L 190 600 L 189 601 L 189 602 L 187 604 L 187 605 L 185 607 L 185 608 L 181 612 L 180 612 L 177 615 L 176 615 L 175 616 L 174 616 L 173 617 L 172 617 L 171 618 L 169 618 L 168 619 L 165 619 L 164 620 L 161 620 L 161 621 L 160 622 L 160 631 L 162 633 L 248 633 L 250 631 L 250 624 L 249 623 L 249 621 L 248 620 L 246 620 L 245 619 L 239 619 L 238 618 L 236 618 L 235 617 L 234 617 L 233 616 L 232 616 L 230 614 L 229 614 L 228 613 L 228 612 L 225 609 L 225 608 L 224 607 L 224 604 L 223 603 L 223 596 L 224 595 L 224 593 L 225 592 L 225 590 L 226 589 L 226 587 L 227 586 L 227 585 L 228 584 L 228 582 L 229 581 L 229 580 L 230 579 L 230 577 L 231 576 L 231 574 L 232 573 L 232 572 L 233 571 L 233 569 L 234 568 L 234 567 L 235 566 L 235 564 L 236 563 L 236 561 L 237 560 L 237 559 L 238 558 L 238 556 L 239 555 L 239 553 L 240 552 L 240 551 L 241 550 L 241 548 L 242 547 L 242 546 L 243 545 L 243 543 L 244 542 L 244 540 L 245 539 L 245 538 L 246 537 L 246 535 L 247 534 L 356 534 L 357 535 L 357 536 L 358 537 L 358 538 L 359 539 L 359 541 L 360 542 L 360 544 L 361 545 L 361 547 L 362 548 L 362 550 L 363 551 L 363 553 L 364 554 L 364 556 L 365 557 L 365 559 L 366 560 L 366 562 L 367 563 L 367 565 L 368 566 L 368 568 L 369 569 L 369 571 L 370 572 L 370 574 L 371 575 L 371 577 L 372 578 L 372 580 L 373 581 L 373 583 L 374 584 L 374 586 L 375 587 L 375 589 L 376 590 L 376 592 L 377 593 L 377 596 L 378 597 L 378 599 L 379 600 L 379 603 L 380 604 L 380 608 L 379 609 L 379 611 L 373 617 L 371 617 L 370 618 L 367 618 L 366 619 L 362 619 L 361 620 L 361 632 L 362 632 L 363 633 L 460 633 L 461 632 L 461 622 L 459 620 L 457 620 L 456 619 L 453 619 L 452 618 L 451 618 L 450 617 L 448 617 L 447 616 L 446 616 L 445 615 L 444 615 L 441 612 L 440 612 L 437 609 L 437 608 L 435 606 L 435 605 L 434 604 L 434 603 L 433 602 L 433 600 L 432 599 L 432 597 L 431 596 L 431 595 L 430 594 L 430 592 L 429 591 L 429 590 L 428 589 L 428 587 L 427 586 L 427 584 L 426 583 L 426 582 L 425 581 L 425 579 L 424 578 L 424 576 L 423 575 L 423 574 L 422 573 L 422 571 L 421 570 L 421 568 L 420 567 L 420 566 L 419 565 L 419 563 L 418 562 L 418 560 L 417 559 L 417 558 L 416 557 L 416 555 L 415 554 L 415 553 L 414 552 L 414 550 L 413 549 L 413 547 L 412 546 L 412 544 L 411 543 L 411 542 L 410 541 L 410 539 L 409 538 L 409 536 L 408 535 L 408 533 L 407 532 L 407 531 L 406 530 L 406 528 L 405 527 L 405 525 L 404 524 L 404 522 L 403 521 L 403 519 L 402 518 L 402 517 L 401 516 L 401 514 L 400 513 L 400 511 L 399 510 L 399 509 L 398 508 L 398 506 L 397 505 L 397 503 L 396 502 L 396 500 L 395 499 L 395 498 L 394 497 L 394 495 L 393 494 L 393 492 L 392 491 L 392 489 L 391 488 L 391 487 L 390 486 L 390 484 L 389 483 L 389 481 L 388 480 L 388 478 L 387 477 L 387 476 L 386 475 L 386 473 L 385 472 L 385 470 L 384 469 L 384 468 L 383 467 L 383 465 L 382 464 L 382 462 L 381 461 L 381 459 L 380 458 L 380 457 L 379 456 L 379 454 L 378 453 L 378 452 L 377 451 L 377 449 L 376 448 L 376 446 L 375 445 L 375 444 L 374 443 L 374 441 L 373 440 L 373 438 L 372 437 L 372 436 L 371 435 L 371 433 L 370 432 L 370 430 L 369 429 L 369 428 L 368 427 L 368 425 L 367 424 L 367 422 L 366 421 L 366 419 L 365 418 L 365 417 L 364 416 L 364 414 L 363 413 L 363 411 L 362 410 L 362 409 L 361 408 L 361 406 L 360 405 L 360 403 L 359 402 L 359 401 L 358 400 L 358 398 L 357 397 L 357 395 L 356 394 L 356 392 L 355 391 L 355 390 L 354 389 L 354 387 L 353 386 L 353 384 L 352 383 L 352 381 L 351 380 L 351 379 L 350 378 L 350 376 L 349 375 L 349 373 L 348 372 L 348 370 L 347 369 L 347 368 L 346 367 L 346 365 L 345 364 L 345 362 L 344 361 L 344 359 L 343 358 L 343 357 L 342 356 L 342 354 L 341 353 L 341 351 L 340 350 L 340 348 L 339 347 L 339 346 L 338 345 L 338 343 L 337 342 L 337 340 L 336 339 L 336 337 L 335 336 L 335 335 L 334 334 L 334 332 L 333 331 L 333 329 L 332 328 L 332 326 L 331 325 L 331 324 L 330 323 L 327 323 L 326 322 Z M 928 187 L 915 200 L 915 201 L 898 218 L 898 219 L 890 227 L 889 227 L 877 239 L 876 239 L 869 246 L 868 246 L 863 251 L 862 251 L 858 255 L 857 255 L 853 259 L 852 259 L 848 263 L 847 263 L 844 266 L 843 266 L 840 269 L 839 269 L 836 272 L 835 272 L 833 274 L 832 274 L 829 277 L 828 277 L 825 280 L 824 280 L 822 282 L 821 282 L 819 284 L 818 284 L 816 286 L 815 286 L 812 289 L 811 289 L 809 291 L 808 291 L 806 293 L 805 293 L 802 296 L 801 296 L 799 298 L 798 298 L 795 301 L 794 301 L 792 303 L 791 303 L 788 306 L 787 306 L 784 309 L 783 309 L 780 312 L 779 312 L 776 315 L 775 315 L 772 318 L 771 318 L 767 322 L 766 322 L 762 326 L 761 326 L 756 331 L 755 331 L 749 337 L 748 337 L 737 348 L 736 348 L 720 364 L 720 365 L 712 373 L 712 374 L 707 379 L 707 380 L 703 384 L 703 385 L 700 388 L 700 389 L 697 392 L 697 393 L 694 396 L 694 397 L 692 399 L 692 400 L 690 402 L 690 403 L 688 405 L 688 406 L 686 408 L 686 409 L 684 411 L 684 412 L 682 414 L 682 415 L 681 416 L 681 417 L 679 419 L 679 420 L 678 421 L 678 422 L 677 423 L 677 424 L 675 426 L 675 427 L 674 428 L 674 429 L 673 430 L 673 431 L 672 432 L 672 433 L 671 434 L 671 435 L 670 436 L 670 437 L 669 438 L 669 439 L 668 440 L 668 441 L 667 442 L 667 443 L 666 444 L 666 445 L 665 446 L 665 447 L 664 448 L 664 450 L 663 451 L 663 452 L 662 453 L 662 454 L 661 455 L 661 457 L 660 458 L 660 459 L 659 460 L 659 462 L 658 463 L 658 465 L 657 466 L 657 468 L 656 469 L 656 470 L 655 471 L 655 473 L 654 474 L 654 476 L 653 477 L 653 480 L 652 481 L 652 483 L 651 484 L 651 487 L 650 488 L 650 491 L 649 492 L 649 495 L 648 496 L 648 499 L 647 500 L 647 504 L 646 505 L 646 508 L 645 509 L 645 513 L 644 514 L 644 518 L 643 519 L 643 523 L 642 524 L 642 530 L 641 531 L 640 530 L 640 520 L 639 519 L 639 498 L 638 497 L 638 479 L 636 477 L 579 477 L 578 478 L 578 487 L 580 489 L 583 489 L 584 490 L 586 490 L 587 491 L 589 491 L 590 492 L 591 492 L 592 493 L 593 493 L 594 494 L 595 494 L 596 495 L 597 495 L 599 497 L 600 497 L 606 503 L 606 504 L 608 506 L 608 507 L 609 508 L 609 510 L 610 511 L 610 515 L 611 516 L 611 590 L 610 591 L 610 605 L 609 606 L 608 606 L 607 607 L 606 607 L 605 608 L 603 608 L 602 609 L 601 609 L 600 610 L 598 610 L 597 611 L 595 611 L 594 612 L 591 612 L 590 613 L 585 613 L 584 614 L 575 614 L 574 615 L 564 615 L 563 614 L 555 614 L 554 613 L 550 613 L 549 612 L 547 612 L 546 611 L 544 611 L 543 610 L 541 610 L 540 609 L 538 609 L 537 608 L 536 608 L 535 607 L 534 607 L 533 606 L 532 606 L 531 605 L 530 605 L 528 603 L 527 603 L 525 601 L 524 601 L 520 597 L 519 597 L 512 590 L 512 589 L 508 585 L 508 584 L 505 581 L 505 580 L 504 579 L 504 578 L 502 576 L 502 575 L 501 574 L 501 573 L 500 572 L 500 571 L 499 570 L 499 569 L 498 568 L 498 567 L 497 566 L 497 565 L 496 564 L 496 562 L 495 561 L 495 560 L 494 559 L 494 557 L 493 556 L 493 554 L 492 553 L 492 550 L 491 549 L 491 546 L 490 545 L 490 542 L 489 541 L 489 537 L 488 536 L 488 532 L 487 531 L 487 525 L 486 524 L 486 515 L 485 514 L 485 501 L 484 500 L 484 461 L 485 460 L 485 447 L 486 446 L 486 437 L 487 436 L 487 430 L 488 429 L 488 424 L 489 423 L 489 420 L 490 419 L 490 415 L 491 414 L 491 411 L 492 410 L 492 408 L 493 407 L 493 404 L 494 403 L 494 401 L 495 400 L 495 399 L 496 398 L 496 396 L 497 395 L 497 394 L 498 393 L 498 392 L 499 391 L 499 390 L 500 389 L 500 388 L 501 387 L 501 386 L 502 385 L 502 384 L 503 383 L 503 382 L 505 380 L 505 379 L 507 377 L 507 376 L 510 373 L 510 372 L 515 367 L 515 366 L 519 362 L 520 362 L 525 357 L 526 357 L 528 355 L 529 355 L 530 354 L 531 354 L 533 352 L 534 352 L 535 351 L 536 351 L 537 350 L 539 350 L 540 349 L 541 349 L 542 348 L 545 348 L 546 347 L 549 347 L 550 346 L 556 346 L 557 345 L 583 345 L 584 346 L 590 346 L 591 347 L 595 347 L 596 348 L 598 348 L 599 349 L 601 349 L 602 350 L 604 350 L 605 351 L 606 351 L 607 352 L 608 352 L 609 353 L 610 353 L 611 354 L 612 354 L 614 356 L 615 356 L 617 358 L 618 358 L 631 371 L 631 372 L 633 374 L 633 375 L 635 377 L 635 378 L 637 380 L 637 381 L 638 382 L 638 383 L 639 384 L 639 385 L 641 387 L 641 388 L 642 389 L 642 390 L 643 391 L 643 392 L 644 393 L 644 394 L 645 395 L 645 396 L 646 397 L 646 398 L 647 399 L 650 399 L 652 397 L 652 396 L 653 395 L 653 393 L 654 392 L 654 390 L 655 389 L 655 388 L 656 387 L 656 385 L 657 384 L 657 383 L 658 382 L 658 380 L 659 379 L 659 377 L 660 376 L 660 375 L 661 374 L 661 372 L 662 371 L 662 369 L 663 368 L 663 367 L 664 366 L 664 364 L 665 363 L 665 362 L 666 361 L 666 355 L 664 353 L 663 353 L 658 348 L 657 348 L 654 345 L 653 345 L 651 343 L 650 343 L 648 341 L 647 341 L 645 339 L 644 339 L 643 338 L 642 338 L 641 337 L 640 337 L 638 335 L 637 335 L 636 334 L 634 334 L 633 333 L 632 333 L 631 332 L 630 332 L 629 331 L 628 331 L 627 330 L 625 330 L 624 329 L 622 329 L 621 328 L 620 328 L 619 327 L 616 327 L 615 326 L 613 326 L 612 325 L 609 325 L 608 324 L 605 324 L 604 323 L 600 323 L 599 322 L 594 322 L 593 321 L 585 321 L 584 320 L 559 320 L 558 321 L 549 321 L 548 322 L 543 322 L 542 323 L 538 323 L 537 324 L 534 324 L 533 325 L 530 325 L 529 326 L 527 326 L 526 327 L 524 327 L 523 328 L 521 328 L 520 329 L 519 329 L 518 330 L 516 330 L 515 331 L 514 331 L 513 332 L 511 332 L 510 333 L 509 333 L 508 334 L 507 334 L 506 335 L 505 335 L 503 337 L 502 337 L 501 338 L 500 338 L 499 339 L 498 339 L 496 341 L 495 341 L 493 343 L 492 343 L 489 346 L 488 346 L 484 350 L 483 350 L 470 363 L 470 364 L 466 368 L 466 369 L 463 372 L 463 373 L 461 375 L 461 376 L 459 378 L 459 379 L 458 380 L 458 381 L 456 383 L 456 384 L 455 385 L 455 386 L 454 387 L 454 388 L 453 389 L 453 390 L 451 392 L 451 394 L 450 395 L 450 396 L 449 397 L 449 398 L 448 399 L 448 400 L 447 401 L 447 403 L 446 404 L 446 405 L 445 406 L 445 408 L 444 409 L 444 411 L 443 412 L 443 414 L 442 415 L 442 417 L 441 418 L 441 421 L 440 422 L 440 424 L 439 425 L 439 428 L 438 429 L 438 433 L 437 434 L 437 438 L 436 439 L 436 443 L 435 444 L 435 450 L 434 451 L 434 458 L 433 459 L 433 472 L 432 473 L 432 498 L 433 499 L 433 512 L 434 513 L 434 520 L 435 521 L 435 527 L 436 528 L 436 532 L 437 533 L 437 537 L 438 538 L 438 541 L 439 542 L 439 545 L 440 546 L 440 548 L 441 549 L 441 551 L 442 552 L 442 554 L 443 555 L 443 557 L 444 558 L 444 560 L 445 561 L 445 562 L 446 563 L 446 564 L 447 565 L 447 567 L 448 568 L 448 569 L 449 570 L 449 571 L 450 572 L 450 573 L 451 574 L 451 575 L 453 577 L 453 578 L 454 579 L 454 580 L 455 581 L 455 582 L 457 584 L 457 585 L 459 587 L 459 588 L 462 591 L 462 592 L 466 596 L 466 597 L 478 609 L 479 609 L 483 613 L 484 613 L 487 616 L 488 616 L 490 618 L 491 618 L 493 620 L 494 620 L 496 622 L 497 622 L 498 623 L 499 623 L 500 624 L 501 624 L 502 625 L 503 625 L 504 626 L 505 626 L 506 627 L 507 627 L 508 628 L 509 628 L 510 629 L 511 629 L 512 630 L 513 630 L 514 631 L 516 631 L 517 632 L 519 632 L 520 633 L 521 633 L 522 634 L 525 634 L 526 635 L 528 635 L 529 636 L 531 636 L 532 637 L 535 637 L 536 638 L 540 638 L 541 639 L 545 639 L 546 640 L 552 640 L 553 641 L 581 641 L 582 640 L 590 640 L 591 639 L 596 639 L 597 638 L 599 638 L 600 639 L 600 640 L 599 641 L 599 642 L 598 643 L 598 645 L 597 646 L 597 647 L 596 648 L 596 649 L 595 650 L 595 652 L 594 653 L 594 654 L 593 655 L 593 656 L 592 657 L 592 659 L 591 660 L 591 661 L 590 662 L 590 663 L 589 664 L 589 666 L 588 667 L 588 668 L 587 669 L 587 670 L 586 671 L 586 672 L 585 673 L 585 675 L 584 676 L 584 677 L 583 678 L 583 679 L 582 680 L 582 682 L 581 683 L 581 684 L 580 685 L 580 686 L 579 687 L 579 688 L 578 689 L 578 691 L 577 692 L 577 693 L 576 694 L 576 695 L 575 696 L 575 698 L 574 699 L 574 700 L 573 701 L 573 702 L 572 703 L 572 704 L 571 705 L 571 707 L 570 708 L 570 709 L 569 710 L 569 711 L 568 712 L 568 714 L 567 715 L 567 716 L 566 717 L 566 718 L 565 719 L 565 721 L 564 722 L 564 723 L 563 724 L 563 725 L 562 726 L 562 728 L 561 729 L 561 730 L 560 731 L 560 732 L 559 733 L 559 735 L 558 736 L 558 737 L 557 738 L 557 739 L 556 740 L 556 742 L 555 743 L 555 744 L 554 745 L 554 747 L 553 748 L 553 750 L 552 751 L 552 754 L 551 755 L 551 757 L 550 758 L 550 760 L 549 761 L 549 763 L 548 764 L 548 767 L 547 768 L 547 771 L 546 772 L 546 774 L 545 775 L 545 778 L 544 779 L 544 782 L 543 783 L 543 786 L 542 787 L 542 790 L 541 791 L 541 795 L 540 796 L 540 800 L 539 801 L 539 804 L 541 806 L 542 806 L 546 802 L 546 801 L 549 798 L 549 797 L 552 794 L 552 793 L 556 789 L 556 788 L 559 785 L 559 784 L 562 781 L 562 780 L 565 777 L 565 776 L 568 773 L 568 772 L 570 770 L 570 769 L 573 766 L 573 765 L 575 763 L 575 762 L 577 760 L 577 757 L 578 756 L 578 745 L 579 744 L 579 735 L 580 734 L 580 728 L 581 727 L 581 723 L 582 722 L 582 719 L 583 718 L 583 717 L 584 716 L 584 714 L 585 713 L 585 712 L 586 711 L 586 709 L 587 708 L 587 707 L 588 706 L 588 704 L 589 703 L 589 701 L 590 700 L 590 699 L 591 698 L 591 697 L 592 696 L 592 694 L 593 693 L 593 691 L 594 690 L 594 689 L 595 688 L 595 687 L 596 686 L 596 684 L 597 683 L 597 682 L 598 681 L 598 679 L 599 678 L 599 677 L 600 676 L 600 675 L 601 674 L 601 672 L 602 671 L 602 670 L 603 669 L 603 668 L 604 667 L 604 665 L 605 664 L 605 663 L 606 662 L 606 661 L 607 660 L 607 659 L 608 658 L 608 656 L 609 655 L 609 654 L 610 653 L 610 652 L 611 651 L 611 650 L 612 649 L 612 648 L 613 647 L 613 646 L 614 645 L 614 643 L 615 642 L 615 641 L 616 640 L 616 639 L 617 638 L 617 637 L 618 636 L 618 635 L 619 634 L 619 633 L 620 632 L 620 631 L 621 630 L 621 629 L 622 628 L 622 627 L 623 626 L 623 625 L 624 624 L 624 623 L 625 622 L 625 621 L 626 620 L 626 619 L 627 618 L 627 617 L 628 616 L 628 615 L 629 614 L 629 613 L 630 612 L 630 611 L 631 610 L 631 609 L 632 608 L 632 607 L 633 606 L 633 605 L 634 604 L 634 603 L 635 602 L 635 601 L 637 599 L 637 598 L 638 597 L 638 596 L 639 595 L 639 594 L 640 593 L 640 592 L 641 591 L 641 590 L 643 588 L 643 587 L 644 586 L 644 585 L 645 584 L 645 583 L 646 582 L 646 581 L 648 579 L 648 578 L 649 577 L 649 576 L 650 575 L 650 574 L 652 572 L 652 571 L 653 570 L 653 569 L 654 568 L 654 567 L 656 565 L 656 564 L 657 563 L 657 562 L 659 560 L 659 559 L 660 558 L 660 557 L 662 555 L 662 554 L 664 552 L 664 551 L 665 550 L 665 549 L 667 547 L 667 546 L 669 544 L 669 543 L 670 542 L 670 541 L 672 539 L 672 538 L 674 536 L 674 535 L 676 533 L 676 532 L 678 530 L 678 529 L 680 527 L 680 526 L 682 524 L 682 523 L 684 521 L 684 520 L 686 518 L 686 517 L 688 515 L 688 514 L 690 512 L 690 511 L 692 509 L 692 508 L 695 505 L 695 504 L 697 502 L 697 501 L 699 499 L 699 498 L 701 496 L 701 495 L 704 492 L 704 491 L 706 489 L 706 488 L 708 486 L 708 485 L 710 483 L 710 482 L 713 479 L 713 478 L 715 476 L 715 475 L 718 472 L 718 471 L 720 469 L 720 468 L 723 465 L 723 464 L 726 461 L 726 460 L 728 458 L 728 457 L 731 454 L 731 453 L 734 450 L 734 449 L 737 446 L 737 445 L 740 442 L 740 441 L 744 437 L 744 436 L 747 433 L 747 432 L 750 429 L 750 428 L 753 425 L 753 424 L 757 420 L 757 419 L 760 416 L 760 415 L 764 411 L 764 410 L 768 406 L 768 405 L 771 402 L 771 401 L 775 397 L 775 396 L 779 392 L 779 391 L 783 387 L 783 386 L 786 383 L 786 382 L 791 377 L 791 376 L 795 372 L 795 371 L 799 367 L 799 366 L 803 362 L 803 361 L 808 356 L 808 355 L 813 350 L 813 349 L 818 344 L 818 343 L 823 338 L 823 337 L 829 331 L 829 330 L 835 324 L 835 323 L 841 317 L 841 316 L 847 310 L 848 311 L 848 312 L 846 314 L 846 315 L 845 316 L 845 317 L 843 319 L 843 320 L 841 322 L 841 323 L 839 325 L 839 326 L 837 328 L 837 329 L 835 331 L 835 332 L 833 334 L 833 335 L 831 337 L 831 338 L 829 340 L 829 341 L 826 344 L 826 345 L 824 347 L 824 348 L 822 350 L 822 351 L 820 353 L 820 354 L 817 357 L 817 358 L 815 360 L 815 361 L 812 364 L 812 365 L 810 367 L 810 368 L 808 370 L 808 371 L 805 374 L 805 375 L 803 377 L 803 378 L 800 381 L 800 382 L 798 384 L 798 385 L 796 387 L 796 388 L 793 391 L 793 392 L 791 394 L 791 395 L 788 398 L 788 399 L 786 401 L 786 402 L 783 405 L 783 406 L 781 408 L 781 409 L 778 412 L 778 413 L 776 415 L 776 416 L 774 418 L 774 419 L 771 422 L 771 423 L 769 425 L 769 426 L 766 429 L 766 430 L 764 432 L 764 433 L 761 436 L 761 437 L 759 439 L 759 440 L 757 442 L 757 443 L 754 446 L 754 447 L 752 449 L 752 450 L 749 453 L 749 454 L 747 456 L 747 457 L 745 459 L 745 460 L 742 463 L 742 464 L 740 466 L 740 467 L 738 469 L 738 470 L 735 473 L 735 474 L 733 476 L 733 477 L 731 479 L 731 480 L 729 482 L 729 483 L 726 486 L 726 487 L 724 489 L 724 490 L 722 492 L 722 493 L 720 495 L 720 496 L 718 498 L 718 499 L 716 501 L 716 502 L 714 504 L 714 505 L 712 507 L 712 508 L 709 511 L 709 512 L 707 514 L 707 515 L 705 517 L 705 518 L 704 519 L 704 520 L 702 522 L 702 523 L 700 525 L 700 526 L 698 528 L 698 529 L 696 531 L 696 532 L 694 534 L 694 535 L 693 536 L 693 537 L 691 539 L 691 540 L 690 541 L 690 542 L 688 544 L 688 545 L 686 547 L 686 548 L 685 549 L 685 550 L 683 552 L 683 553 L 682 554 L 682 555 L 680 557 L 680 558 L 679 559 L 679 560 L 677 562 L 677 563 L 676 564 L 676 565 L 675 566 L 675 567 L 673 569 L 673 570 L 672 571 L 672 572 L 670 574 L 670 575 L 669 576 L 669 577 L 668 578 L 668 579 L 666 581 L 666 582 L 665 583 L 665 584 L 664 585 L 664 586 L 663 587 L 663 588 L 661 590 L 661 591 L 660 592 L 660 593 L 659 594 L 659 595 L 658 596 L 658 597 L 657 598 L 657 599 L 656 600 L 656 601 L 654 603 L 654 604 L 653 605 L 653 606 L 652 607 L 652 608 L 651 609 L 651 610 L 650 611 L 650 612 L 649 613 L 649 614 L 648 615 L 648 616 L 647 617 L 647 618 L 645 620 L 645 621 L 644 622 L 644 623 L 643 624 L 643 625 L 642 626 L 642 627 L 641 628 L 641 629 L 640 630 L 640 631 L 639 632 L 639 633 L 638 634 L 638 635 L 637 636 L 637 637 L 636 638 L 636 639 L 635 640 L 635 641 L 634 642 L 634 643 L 633 644 L 633 645 L 631 647 L 631 648 L 630 649 L 630 650 L 629 651 L 629 652 L 628 653 L 628 654 L 627 655 L 627 656 L 626 657 L 626 658 L 625 659 L 625 660 L 624 661 L 624 662 L 623 663 L 623 664 L 622 665 L 622 666 L 621 667 L 621 668 L 620 669 L 620 670 L 619 671 L 619 672 L 618 673 L 618 674 L 617 675 L 617 676 L 616 677 L 616 678 L 615 679 L 615 680 L 614 681 L 614 682 L 613 683 L 613 684 L 612 685 L 612 686 L 611 687 L 611 688 L 610 689 L 610 690 L 609 691 L 609 692 L 608 693 L 608 695 L 610 695 L 610 694 L 612 692 L 612 691 L 615 688 L 615 687 L 618 684 L 618 683 L 621 680 L 621 679 L 625 675 L 625 674 L 640 659 L 641 659 L 643 657 L 644 657 L 645 656 L 646 656 L 648 654 L 649 654 L 650 653 L 652 653 L 653 652 L 655 652 L 656 651 L 659 651 L 660 650 L 662 650 L 663 649 L 666 649 L 667 648 L 670 648 L 671 647 L 673 647 L 674 646 L 677 646 L 678 645 L 680 645 L 681 644 L 683 644 L 684 643 L 686 643 L 687 642 L 688 642 L 689 641 L 691 641 L 692 640 L 694 640 L 695 639 L 696 639 L 697 638 L 699 638 L 700 637 L 701 637 L 702 636 L 704 636 L 705 635 L 706 635 L 707 634 L 708 634 L 709 633 L 710 633 L 711 632 L 712 632 L 713 631 L 714 631 L 715 630 L 716 630 L 717 629 L 718 629 L 719 628 L 720 628 L 721 627 L 722 627 L 723 626 L 724 626 L 725 625 L 726 625 L 728 623 L 729 623 L 730 622 L 731 622 L 733 620 L 734 620 L 735 619 L 736 619 L 738 617 L 739 617 L 742 614 L 743 614 L 746 611 L 747 611 L 751 607 L 750 606 L 715 606 L 714 605 L 705 605 L 704 604 L 705 603 L 711 603 L 712 602 L 717 602 L 718 601 L 722 601 L 723 600 L 726 600 L 727 599 L 730 599 L 731 598 L 734 598 L 735 597 L 737 597 L 738 596 L 740 596 L 741 595 L 743 595 L 744 594 L 746 594 L 747 593 L 748 593 L 749 592 L 750 592 L 751 591 L 753 591 L 754 590 L 755 590 L 756 589 L 757 589 L 758 588 L 759 588 L 760 587 L 761 587 L 762 586 L 763 586 L 764 585 L 765 585 L 767 583 L 768 583 L 769 582 L 770 582 L 771 581 L 772 581 L 774 579 L 775 579 L 777 577 L 778 577 L 780 575 L 781 575 L 784 572 L 785 572 L 789 568 L 790 568 L 797 561 L 798 561 L 809 550 L 809 549 L 815 543 L 815 542 L 819 538 L 819 537 L 823 533 L 823 532 L 826 529 L 826 528 L 828 526 L 828 525 L 830 523 L 830 522 L 833 519 L 833 518 L 834 517 L 834 516 L 836 514 L 836 513 L 838 511 L 838 510 L 840 508 L 840 507 L 841 506 L 841 505 L 843 503 L 843 502 L 844 501 L 844 500 L 845 499 L 845 498 L 842 498 L 841 499 L 837 499 L 836 500 L 831 500 L 830 501 L 824 501 L 823 502 L 818 502 L 817 503 L 811 503 L 810 504 L 802 504 L 801 505 L 792 505 L 791 506 L 782 506 L 781 505 L 782 504 L 784 504 L 785 503 L 788 503 L 789 502 L 791 502 L 792 501 L 794 501 L 795 500 L 797 500 L 798 499 L 799 499 L 800 498 L 802 498 L 803 497 L 805 497 L 806 496 L 807 496 L 808 495 L 810 495 L 811 494 L 812 494 L 813 493 L 814 493 L 815 492 L 817 492 L 818 491 L 819 491 L 820 490 L 821 490 L 822 489 L 823 489 L 824 488 L 825 488 L 826 487 L 827 487 L 828 486 L 829 486 L 830 485 L 831 485 L 832 484 L 833 484 L 835 482 L 836 482 L 837 481 L 838 481 L 840 479 L 841 479 L 843 477 L 844 477 L 847 474 L 848 474 L 853 469 L 854 469 L 858 465 L 858 464 L 863 459 L 863 458 L 866 455 L 866 454 L 868 452 L 868 451 L 869 450 L 869 449 L 870 448 L 870 447 L 872 445 L 872 444 L 873 443 L 873 442 L 874 441 L 874 440 L 875 439 L 875 438 L 876 437 L 876 436 L 877 435 L 877 434 L 878 433 L 878 432 L 879 431 L 879 430 L 880 429 L 880 428 L 881 427 L 881 425 L 882 424 L 882 423 L 883 422 L 883 421 L 884 420 L 884 418 L 885 417 L 885 415 L 886 414 L 886 413 L 887 412 L 887 410 L 888 409 L 888 407 L 889 406 L 889 404 L 890 403 L 890 401 L 891 400 L 891 398 L 892 397 L 892 395 L 893 394 L 893 392 L 894 391 L 894 388 L 895 387 L 895 384 L 896 383 L 896 380 L 897 379 L 897 378 L 895 378 L 894 379 L 893 379 L 892 380 L 890 380 L 889 381 L 888 381 L 887 382 L 886 382 L 885 383 L 883 383 L 882 384 L 881 384 L 880 385 L 878 385 L 877 386 L 875 386 L 874 387 L 873 387 L 872 388 L 870 388 L 869 389 L 868 389 L 867 390 L 865 390 L 864 391 L 863 391 L 862 392 L 860 392 L 859 393 L 857 393 L 856 394 L 854 394 L 853 395 L 852 395 L 851 394 L 853 392 L 854 392 L 855 391 L 856 391 L 859 388 L 860 388 L 862 386 L 863 386 L 866 383 L 867 383 L 870 380 L 871 380 L 876 375 L 877 375 L 895 357 L 895 356 L 898 353 L 898 352 L 901 349 L 901 348 L 902 347 L 902 346 L 904 344 L 904 343 L 905 342 L 905 341 L 906 340 L 906 339 L 907 338 L 907 337 L 908 336 L 908 335 L 909 334 L 909 333 L 910 332 L 910 330 L 911 329 L 911 328 L 912 327 L 912 326 L 913 325 L 913 323 L 914 322 L 914 320 L 915 319 L 915 317 L 916 316 L 916 314 L 917 313 L 917 311 L 918 310 L 918 308 L 919 307 L 919 304 L 920 303 L 920 301 L 921 300 L 921 297 L 922 296 L 922 293 L 923 292 L 923 289 L 924 288 L 924 285 L 925 284 L 925 281 L 926 280 L 926 276 L 927 275 L 927 270 L 928 269 L 928 265 L 929 264 L 929 259 L 930 258 L 930 252 L 931 251 L 931 244 L 932 243 L 932 234 L 933 233 L 933 202 L 932 201 L 932 193 L 931 192 L 931 188 L 930 187 Z "/>
</svg>