<svg viewBox="10 10 125 125" version="1.2" xmlns="http://www.w3.org/2000/svg" xmlns:ev="http://www.w3.org/2001/xml-events" xmlns:xlink="http://www.w3.org/1999/xlink"><defs /><path d="M 35.00,123.00 L 34.00,123.00 L 33.00,123.00 L 32.00,123.00 L 31.00,123.00 L 30.00,123.00 L 29.00,123.00 L 28.00,123.00 L 27.00,123.00 L 26.00,122.00 L 26.00,121.00 L 26.00,120.00 L 26.00,119.00 L 26.00,118.00 L 26.00,117.00 L 26.00,116.00 L 26.00,115.00 L 26.00,114.00 L 26.00,113.00 L 26.00,112.00 L 26.00,111.00 L 26.00,110.00 L 26.00,109.00 L 26.00,108.00 L 26.00,107.00 L 26.00,106.00 L 26.00,105.00 L 26.00,104.00 L 26.00,103.00 L 26.00,102.00 L 26.00,101.00 L 26.00,100.00 L 26.00,99.00 L 26.00,98.00 L 26.00,97.00 L 26.00,96.00 L 26.00,95.00 L 26.00,94.00 L 26.00,93.00 L 26.00,92.00 L 26.00,91.00 L 26.00,90.00 L 26.00,89.00 L 26.00,88.00 L 26.00,87.00 L 26.00,86.00 L 26.00,85.00 L 26.00,84.00 L 26.00,83.00 L 26.00,82.00 L 26.00,81.00 L 26.00,80.00 L 26.00,79.00 L 26.00,78.00 L 26.00,77.00 L 26.00,76.00 L 26.00,75.00 L 26.00,74.00 L 26.00,73.00 L 26.00,72.00 L 26.00,71.00 L 26.00,70.00 L 26.00,69.00 L 26.00,68.00 L 26.00,67.00 L 26.00,66.00 L 26.00,65.00 L 26.00,64.00 L 26.00,63.00 L 26.00,62.00 L 26.00,61.00 L 26.00,60.00 L 26.00,59.00 L 26.00,58.00 L 26.00,57.00 L 26.00,56.00 L 26.00,55.00 L 26.00,54.00 L 26.00,53.00 L 26.00,52.00 L 26.00,51.00 L 26.00,50.00 L 26.00,49.00 L 26.00,48.00 L 26.00,47.00 L 26.00,46.00 L 26.00,45.00 L 26.00,44.00 L 26.00,43.00 L 26.00,42.00 L 26.00,41.00 L 26.00,40.00 L 26.00,39.00 L 26.00,38.00 L 26.00,37.00 L 26.00,36.00 L 26.00,35.00 L 26.00,34.00 L 26.00,33.00 L 26.00,32.00 L 26.00,31.00 L 26.00,30.00 L 26.00,29.00 L 26.00,28.00 L 26.00,27.00 L 27.00,26.00 L 28.00,26.00 L 29.00,26.00 L 30.00,26.00 L 31.00,26.00 L 32.00,26.00 L 33.00,26.00 L 34.00,26.00 L 35.00,26.00 L 36.00,26.00 L 37.00,26.00 L 38.00,26.00 L 39.00,26.00 L 40.00,26.00 L 41.00,26.00 L 42.00,26.00 L 43.00,26.00 L 44.00,26.00 L 45.00,26.00 L 46.00,26.00 L 47.00,26.00 L 48.00,26.00 L 49.00,26.00 L 50.00,26.00 L 51.00,26.00 L 52.00,26.00 L 53.00,26.00 L 54.00,26.00 L 55.00,26.00 L 56.00,26.00 L 57.00,26.00 L 58.00,26.00 L 59.00,26.00 L 60.00,26.00 L 61.00,26.00 L 62.00,26.00 L 63.00,26.00 L 64.00,26.00 L 65.00,26.00 L 66.00,26.00 L 67.00,26.00 L 68.00,27.00 L 68.00,28.00 L 68.00,29.00 L 68.00,30.00 L 67.00,31.00 L 67.00,31.00 L 67.00,32.00 L 67.00,33.00 L 66.00,34.00 L 65.00,34.00 L 64.00,34.00 L 63.00,34.00 L 62.00,34.00 L 61.00,34.00 L 60.00,34.00 L 59.00,34.00 L 58.00,34.00 L 57.00,34.00 L 56.00,34.00 L 55.00,34.00 L 54.00,34.00 L 53.00,34.00 L 52.00,34.00 L 51.00,34.00 L 50.00,34.00 L 49.00,34.00 L 48.00,34.00 L 47.00,34.00 L 46.00,34.00 L 45.00,34.00 L 44.00,34.00 L 43.00,34.00 L 42.00,34.00 L 41.00,34.00 L 40.00,34.00 L 39.00,34.00 L 38.00,34.00 L 37.00,34.00 L 36.00,34.00 L 36.00,34.00 L 36.00,35.00 L 36.00,36.00 L 36.00,37.00 L 36.00,38.00 L 36.00,39.00 L 36.00,40.00 L 36.00,41.00 L 36.00,41.00 L 37.00,41.00 L 38.00,41.00 L 39.00,41.00 L 40.00,41.00 L 41.00,41.00 L 42.00,41.00 L 43.00,41.00 L 44.00,41.00 L 45.00,41.00 L 46.00,41.00 L 47.00,41.00 L 48.00,41.00 L 49.00,41.00 L 50.00,41.00 L 51.00,41.00 L 52.00,41.00 L 53.00,41.00 L 54.00,41.00 L 55.00,41.00 L 56.00,41.00 L 57.00,41.00 L 58.00,41.00 L 59.00,41.00 L 60.00,41.00 L 61.00,41.00 L 62.00,41.00 L 63.00,41.00 L 64.00,41.00 L 65.00,41.00 L 66.00,41.00 L 67.00,42.00 L 67.00,42.00 L 68.00,43.00 L 67.00,44.00 L 67.00,44.00 L 67.00,45.00 L 67.00,46.00 L 67.00,46.00 L 68.00,47.00 L 67.00,48.00 L 67.00,48.00 L 67.00,49.00 L 66.00,50.00 L 65.00,50.00 L 64.00,50.00 L 63.00,50.00 L 62.00,50.00 L 61.00,50.00 L 60.00,50.00 L 59.00,50.00 L 58.00,50.00 L 57.00,50.00 L 56.00,50.00 L 55.00,50.00 L 54.00,50.00 L 53.00,50.00 L 52.00,50.00 L 51.00,50.00 L 50.00,50.00 L 49.00,50.00 L 48.00,50.00 L 47.00,50.00 L 46.00,50.00 L 45.00,50.00 L 44.00,50.00 L 43.00,50.00 L 42.00,50.00 L 41.00,50.00 L 40.00,50.00 L 39.00,50.00 L 38.00,50.00 L 37.00,50.00 L 36.00,50.00 L 36.00,50.00 L 36.00,51.00 L 36.00,52.00 L 36.00,53.00 L 36.00,54.00 L 36.00,55.00 L 36.00,56.00 L 36.00,57.00 L 36.00,58.00 L 36.00,59.00 L 36.00,60.00 L 36.00,61.00 L 36.00,62.00 L 36.00,63.00 L 36.00,64.00 L 36.00,65.00 L 36.00,66.00 L 36.00,67.00 L 36.00,68.00 L 36.00,69.00 L 36.00,70.00 L 36.00,71.00 L 36.00,72.00 L 36.00,73.00 L 36.00,74.00 L 36.00,75.00 L 36.00,76.00 L 36.00,77.00 L 36.00,78.00 L 36.00,79.00 L 36.00,80.00 L 36.00,81.00 L 36.00,82.00 L 36.00,83.00 L 36.00,84.00 L 36.00,85.00 L 36.00,86.00 L 36.00,87.00 L 36.00,88.00 L 36.00,89.00 L 36.00,90.00 L 36.00,91.00 L 36.00,92.00 L 36.00,93.00 L 36.00,94.00 L 36.00,95.00 L 36.00,96.00 L 36.00,97.00 L 36.00,98.00 L 36.00,99.00 L 36.00,100.00 L 36.00,101.00 L 36.00,102.00 L 36.00,103.00 L 36.00,104.00 L 36.00,105.00 L 36.00,106.00 L 36.00,107.00 L 36.00,108.00 L 36.00,109.00 L 36.00,110.00 L 36.00,111.00 L 36.00,112.00 L 36.00,113.00 L 36.00,114.00 L 36.00,115.00 L 36.00,116.00 L 36.00,117.00 L 36.00,118.00 L 36.00,119.00 L 36.00,120.00 L 36.00,121.00 L 36.00,122.00 L 35.00,123.00 Z" fill="black" stroke="black" stroke-width="0.5" /><path d="M 120.00,123.00 L 119.00,123.00 L 118.00,123.00 L 117.00,123.00 L 116.00,123.00 L 115.00,123.00 L 114.00,123.00 L 113.00,123.00 L 112.00,123.00 L 111.00,122.00 L 111.00,121.00 L 111.00,120.00 L 111.00,119.00 L 111.00,118.00 L 111.00,117.00 L 111.00,116.00 L 111.00,115.00 L 111.00,114.00 L 111.00,113.00 L 111.00,112.00 L 111.00,111.00 L 111.00,110.00 L 111.00,109.00 L 111.00,108.00 L 111.00,107.00 L 111.00,106.00 L 111.00,105.00 L 111.00,104.00 L 111.00,103.00 L 111.00,102.00 L 111.00,101.00 L 111.00,100.00 L 111.00,99.00 L 111.00,98.00 L 111.00,97.00 L 111.00,96.00 L 111.00,95.00 L 111.00,94.00 L 111.00,93.00 L 111.00,92.00 L 111.00,91.00 L 111.00,90.00 L 111.00,89.00 L 111.00,88.00 L 111.00,87.00 L 111.00,86.00 L 111.00,85.00 L 111.00,84.00 L 111.00,83.00 L 111.00,82.00 L 111.00,81.00 L 111.00,80.00 L 111.00,79.00 L 111.00,78.00 L 111.00,77.00 L 111.00,76.00 L 111.00,75.00 L 111.00,74.00 L 111.00,73.00 L 111.00,72.00 L 111.00,71.00 L 111.00,70.00 L 111.00,69.00 L 111.00,68.00 L 111.00,67.00 L 111.00,66.00 L 111.00,65.00 L 111.00,64.00 L 111.00,63.00 L 111.00,62.00 L 111.00,61.00 L 111.00,60.00 L 111.00,59.00 L 111.00,58.00 L 111.00,57.00 L 111.00,56.00 L 111.00,55.00 L 111.00,54.00 L 111.00,53.00 L 111.00,52.00 L 111.00,51.00 L 111.00,50.00 L 111.00,50.00 L 110.00,50.00 L 109.00,50.00 L 108.00,50.00 L 107.00,50.00 L 106.00,50.00 L 105.00,50.00 L 104.00,50.00 L 103.00,50.00 L 102.00,50.00 L 101.00,50.00 L 100.00,50.00 L 99.00,50.00 L 98.00,50.00 L 97.00,50.00 L 96.00,50.00 L 95.00,50.00 L 94.00,50.00 L 93.00,50.00 L 92.00,50.00 L 91.00,50.00 L 90.00,50.00 L 89.00,50.00 L 88.00,50.00 L 87.00,50.00 L 86.00,50.00 L 85.00,50.00 L 84.00,50.00 L 83.00,50.00 L 82.00,50.00 L 81.00,50.00 L 80.00,50.00 L 79.00,49.00 L 79.00,48.00 L 79.00,47.00 L 79.00,46.00 L 79.00,45.00 L 79.00,44.00 L 79.00,43.00 L 79.00,42.00 L 80.00,41.00 L 81.00,41.00 L 82.00,41.00 L 83.00,41.00 L 84.00,41.00 L 85.00,41.00 L 86.00,41.00 L 87.00,41.00 L 88.00,41.00 L 89.00,41.00 L 90.00,41.00 L 91.00,41.00 L 92.00,41.00 L 93.00,41.00 L 94.00,41.00 L 95.00,41.00 L 96.00,41.00 L 97.00,41.00 L 98.00,41.00 L 99.00,41.00 L 100.00,41.00 L 101.00,41.00 L 102.00,41.00 L 103.00,41.00 L 104.00,41.00 L 105.00,41.00 L 106.00,41.00 L 107.00,41.00 L 108.00,41.00 L 109.00,41.00 L 110.00,41.00 L 111.00,41.00 L 111.00,41.00 L 111.00,40.00 L 111.00,39.00 L 111.00,38.00 L 111.00,37.00 L 111.00,36.00 L 111.00,35.00 L 111.00,34.00 L 111.00,34.00 L 110.00,34.00 L 109.00,34.00 L 108.00,34.00 L 107.00,34.00 L 106.00,34.00 L 105.00,34.00 L 104.00,34.00 L 103.00,34.00 L 102.00,34.00 L 101.00,34.00 L 100.00,34.00 L 99.00,34.00 L 98.00,34.00 L 97.00,34.00 L 96.00,34.00 L 95.00,34.00 L 94.00,34.00 L 93.00,34.00 L 92.00,34.00 L 91.00,34.00 L 90.00,34.00 L 89.00,34.00 L 88.00,34.00 L 87.00,34.00 L 86.00,34.00 L 85.00,34.00 L 84.00,34.00 L 83.00,34.00 L 82.00,34.00 L 81.00,34.00 L 80.00,34.00 L 79.00,33.00 L 79.00,32.00 L 79.00,31.00 L 79.00,30.00 L 79.00,29.00 L 79.00,28.00 L 79.00,27.00 L 80.00,26.00 L 81.00,26.00 L 82.00,26.00 L 83.00,26.00 L 84.00,26.00 L 85.00,26.00 L 86.00,26.00 L 87.00,26.00 L 88.00,26.00 L 89.00,26.00 L 90.00,26.00 L 91.00,26.00 L 92.00,26.00 L 93.00,26.00 L 94.00,26.00 L 95.00,26.00 L 96.00,26.00 L 97.00,26.00 L 98.00,26.00 L 99.00,26.00 L 100.00,26.00 L 101.00,26.00 L 102.00,26.00 L 103.00,26.00 L 104.00,26.00 L 105.00,26.00 L 106.00,26.00 L 107.00,26.00 L 108.00,26.00 L 109.00,26.00 L 110.00,26.00 L 111.00,26.00 L 112.00,26.00 L 113.00,26.00 L 114.00,26.00 L 115.00,26.00 L 116.00,26.00 L 117.00,26.00 L 118.00,26.00 L 119.00,26.00 L 120.00,26.00 L 121.00,27.00 L 121.00,28.00 L 121.00,29.00 L 121.00,30.00 L 121.00,31.00 L 121.00,32.00 L 121.00,33.00 L 121.00,34.00 L 121.00,35.00 L 121.00,36.00 L 121.00,37.00 L 121.00,38.00 L 121.00,39.00 L 121.00,40.00 L 121.00,41.00 L 121.00,42.00 L 121.00,43.00 L 121.00,44.00 L 121.00,45.00 L 121.00,46.00 L 121.00,47.00 L 121.00,48.00 L 121.00,49.00 L 121.00,50.00 L 121.00,51.00 L 121.00,52.00 L 121.00,53.00 L 121.00,54.00 L 121.00,55.00 L 121.00,56.00 L 121.00,57.00 L 121.00,58.00 L 121.00,59.00 L 121.00,60.00 L 121.00,61.00 L 121.00,62.00 L 121.00,63.00 L 121.00,64.00 L 121.00,65.00 L 121.00,66.00 L 121.00,67.00 L 121.00,68.00 L 121.00,69.00 L 121.00,70.00 L 121.00,71.00 L 121.00,72.00 L 121.00,73.00 L 121.00,74.00 L 121.00,75.00 L 121.00,76.00 L 121.00,77.00 L 121.00,78.00 L 121.00,79.00 L 121.00,80.00 L 121.00,81.00 L 121.00,82.00 L 121.00,83.00 L 121.00,84.00 L 121.00,85.00 L 121.00,86.00 L 121.00,87.00 L 121.00,88.00 L 121.00,89.00 L 121.00,90.00 L 121.00,91.00 L 121.00,92.00 L 121.00,93.00 L 121.00,94.00 L 121.00,95.00 L 121.00,96.00 L 121.00,97.00 L 121.00,98.00 L 121.00,99.00 L 121.00,100.00 L 121.00,101.00 L 121.00,102.00 L 121.00,103.00 L 121.00,104.00 L 121.00,105.00 L 121.00,106.00 L 121.00,107.00 L 121.00,108.00 L 121.00,109.00 L 121.00,110.00 L 121.00,111.00 L 121.00,112.00 L 121.00,113.00 L 121.00,114.00 L 121.00,115.00 L 121.00,116.00 L 121.00,117.00 L 121.00,118.00 L 121.00,119.00 L 121.00,120.00 L 121.00,121.00 L 121.00,122.00 L 120.00,123.00 Z" fill="black" stroke="black" stroke-width="0.5" /><path d="M 103.00,118.00 L 102.00,118.00 L 101.00,118.00 L 100.00,118.00 L 99.00,118.00 L 98.00,118.00 L 97.00,118.00 L 96.00,118.00 L 95.00,118.00 L 94.00,117.00 L 94.00,116.00 L 94.00,115.00 L 94.00,114.00 L 94.00,113.00 L 94.00,112.00 L 94.00,111.00 L 94.00,110.00 L 94.00,109.00 L 94.00,108.00 L 94.00,107.00 L 94.00,106.00 L 94.00,105.00 L 94.00,104.00 L 94.00,103.00 L 94.00,102.00 L 94.00,101.00 L 94.00,100.00 L 94.00,99.00 L 94.00,98.00 L 94.00,97.00 L 94.00,96.00 L 94.00,95.00 L 94.00,94.00 L 94.00,93.00 L 94.00,92.00 L 94.00,91.00 L 94.00,90.00 L 94.00,89.00 L 94.00,88.00 L 94.00,87.00 L 94.00,86.00 L 94.00,85.00 L 94.00,84.00 L 94.00,83.00 L 94.00,82.00 L 94.00,81.00 L 94.00,81.00 L 93.00,81.00 L 92.00,81.00 L 91.00,81.00 L 90.00,81.00 L 89.00,81.00 L 88.00,81.00 L 87.00,81.00 L 86.00,81.00 L 85.00,81.00 L 84.00,81.00 L 83.00,81.00 L 82.00,81.00 L 81.00,81.00 L 80.00,81.00 L 79.00,81.00 L 78.00,81.00 L 77.00,81.00 L 76.00,81.00 L 75.00,81.00 L 74.00,81.00 L 73.00,81.00 L 72.00,81.00 L 71.00,81.00 L 70.00,81.00 L 69.00,81.00 L 68.00,81.00 L 67.00,81.00 L 66.00,81.00 L 65.00,81.00 L 64.00,81.00 L 63.00,81.00 L 62.00,81.00 L 61.00,81.00 L 60.00,81.00 L 59.00,81.00 L 58.00,81.00 L 57.00,81.00 L 56.00,81.00 L 55.00,81.00 L 54.00,81.00 L 53.00,81.00 L 53.00,81.00 L 53.00,82.00 L 53.00,83.00 L 53.00,84.00 L 53.00,85.00 L 53.00,86.00 L 53.00,87.00 L 53.00,88.00 L 53.00,89.00 L 53.00,90.00 L 53.00,91.00 L 53.00,92.00 L 53.00,93.00 L 53.00,94.00 L 53.00,95.00 L 53.00,96.00 L 53.00,97.00 L 53.00,98.00 L 53.00,99.00 L 53.00,100.00 L 53.00,101.00 L 53.00,102.00 L 53.00,103.00 L 53.00,104.00 L 53.00,105.00 L 53.00,106.00 L 53.00,107.00 L 53.00,108.00 L 53.00,109.00 L 53.00,110.00 L 53.00,111.00 L 53.00,112.00 L 53.00,113.00 L 53.00,114.00 L 53.00,115.00 L 53.00,116.00 L 53.00,117.00 L 52.00,118.00 L 51.00,118.00 L 50.00,118.00 L 49.00,118.00 L 48.00,118.00 L 47.00,118.00 L 46.00,118.00 L 45.00,118.00 L 44.00,118.00 L 43.00,117.00 L 43.00,116.00 L 43.00,115.00 L 43.00,114.00 L 43.00,113.00 L 43.00,112.00 L 43.00,111.00 L 43.00,110.00 L 43.00,109.00 L 43.00,108.00 L 43.00,107.00 L 43.00,106.00 L 43.00,105.00 L 43.00,104.00 L 43.00,103.00 L 43.00,102.00 L 43.00,101.00 L 43.00,100.00 L 43.00,99.00 L 43.00,98.00 L 43.00,97.00 L 43.00,96.00 L 43.00,95.00 L 43.00,94.00 L 43.00,93.00 L 43.00,92.00 L 43.00,91.00 L 43.00,90.00 L 43.00,89.00 L 43.00,88.00 L 43.00,87.00 L 43.00,86.00 L 43.00,85.00 L 43.00,84.00 L 43.00,83.00 L 43.00,82.00 L 43.00,81.00 L 43.00,80.00 L 43.00,79.00 L 43.00,78.00 L 43.00,77.00 L 43.00,76.00 L 43.00,75.00 L 43.00,74.00 L 43.00,73.00 L 43.00,72.00 L 43.00,71.00 L 43.00,70.00 L 43.00,69.00 L 43.00,68.00 L 43.00,67.00 L 43.00,66.00 L 43.00,65.00 L 43.00,64.00 L 43.00,63.00 L 43.00,62.00 L 43.00,61.00 L 43.00,60.00 L 43.00,59.00 L 43.00,58.00 L 44.00,57.00 L 45.00,57.00 L 46.00,57.00 L 47.00,57.00 L 48.00,57.00 L 49.00,57.00 L 50.00,57.00 L 51.00,57.00 L 52.00,57.00 L 53.00,57.00 L 54.00,57.00 L 55.00,57.00 L 56.00,57.00 L 57.00,57.00 L 58.00,57.00 L 59.00,57.00 L 60.00,57.00 L 61.00,57.00 L 62.00,57.00 L 63.00,57.00 L 64.00,57.00 L 65.00,57.00 L 66.00,57.00 L 67.00,57.00 L 68.00,57.00 L 69.00,57.00 L 70.00,57.00 L 71.00,57.00 L 72.00,57.00 L 73.00,57.00 L 74.00,57.00 L 75.00,57.00 L 76.00,57.00 L 77.00,57.00 L 78.00,57.00 L 79.00,57.00 L 80.00,57.00 L 81.00,57.00 L 82.00,57.00 L 83.00,57.00 L 84.00,57.00 L 85.00,57.00 L 86.00,57.00 L 87.00,57.00 L 88.00,57.00 L 89.00,57.00 L 90.00,57.00 L 91.00,57.00 L 92.00,57.00 L 93.00,57.00 L 94.00,57.00 L 95.00,57.00 L 96.00,57.00 L 97.00,57.00 L 98.00,57.00 L 99.00,57.00 L 100.00,57.00 L 101.00,57.00 L 102.00,57.00 L 103.00,57.00 L 104.00,58.00 L 104.00,59.00 L 104.00,60.00 L 104.00,61.00 L 104.00,62.00 L 104.00,63.00 L 104.00,64.00 L 104.00,65.00 L 104.00,66.00 L 104.00,67.00 L 104.00,68.00 L 104.00,69.00 L 104.00,70.00 L 104.00,71.00 L 104.00,72.00 L 104.00,73.00 L 104.00,74.00 L 104.00,75.00 L 104.00,76.00 L 104.00,77.00 L 104.00,78.00 L 104.00,79.00 L 104.00,80.00 L 104.00,81.00 L 104.00,82.00 L 104.00,83.00 L 104.00,84.00 L 104.00,85.00 L 104.00,86.00 L 104.00,87.00 L 104.00,88.00 L 104.00,89.00 L 104.00,90.00 L 104.00,91.00 L 104.00,92.00 L 104.00,93.00 L 104.00,94.00 L 104.00,95.00 L 104.00,96.00 L 104.00,97.00 L 104.00,98.00 L 104.00,99.00 L 104.00,100.00 L 104.00,101.00 L 104.00,102.00 L 104.00,103.00 L 104.00,104.00 L 104.00,105.00 L 104.00,106.00 L 104.00,107.00 L 104.00,108.00 L 104.00,109.00 L 104.00,110.00 L 104.00,111.00 L 104.00,112.00 L 104.00,113.00 L 104.00,114.00 L 104.00,115.00 L 104.00,116.00 L 104.00,117.00 L 103.00,118.00 Z" fill="black" stroke="black" stroke-width="0.5" /><path d="M 94.00,73.00 L 94.00,72.00 L 94.00,71.00 L 94.00,70.00 L 94.00,69.00 L 94.00,68.00 L 94.00,67.00 L 94.00,66.00 L 94.00,66.00 L 93.00,66.00 L 92.00,66.00 L 91.00,66.00 L 90.00,66.00 L 89.00,66.00 L 88.00,66.00 L 87.00,66.00 L 86.00,66.00 L 85.00,66.00 L 84.00,66.00 L 83.00,66.00 L 82.00,66.00 L 81.00,66.00 L 80.00,66.00 L 79.00,66.00 L 78.00,66.00 L 77.00,66.00 L 76.00,66.00 L 75.00,66.00 L 74.00,66.00 L 73.00,66.00 L 72.00,66.00 L 71.00,66.00 L 70.00,66.00 L 69.00,66.00 L 68.00,66.00 L 67.00,66.00 L 66.00,66.00 L 65.00,66.00 L 64.00,66.00 L 63.00,66.00 L 62.00,66.00 L 61.00,66.00 L 60.00,66.00 L 59.00,66.00 L 58.00,66.00 L 57.00,66.00 L 56.00,66.00 L 55.00,66.00 L 54.00,66.00 L 53.00,66.00 L 53.00,66.00 L 53.00,67.00 L 53.00,68.00 L 53.00,69.00 L 53.00,70.00 L 53.00,71.00 L 53.00,72.00 L 53.00,73.00 L 53.00,73.00 L 54.00,73.00 L 55.00,73.00 L 56.00,73.00 L 57.00,73.00 L 58.00,73.00 L 59.00,73.00 L 60.00,73.00 L 61.00,73.00 L 62.00,73.00 L 63.00,73.00 L 64.00,73.00 L 65.00,73.00 L 66.00,73.00 L 67.00,73.00 L 68.00,73.00 L 69.00,73.00 L 70.00,73.00 L 71.00,73.00 L 72.00,73.00 L 73.00,73.00 L 74.00,73.00 L 75.00,73.00 L 76.00,73.00 L 77.00,73.00 L 78.00,73.00 L 79.00,73.00 L 80.00,73.00 L 81.00,73.00 L 82.00,73.00 L 83.00,73.00 L 84.00,73.00 L 85.00,73.00 L 86.00,73.00 L 87.00,73.00 L 88.00,73.00 L 89.00,73.00 L 90.00,73.00 L 91.00,73.00 L 92.00,73.00 L 93.00,73.00 L 94.00,73.00 L 94.00,73.00 Z" style="fill: rgba(207, 23, 23);" stroke="none" stroke-width="0.5" /><path d="M 65.00,118.00 L 64.00,118.00 L 63.00,118.00 L 62.00,118.00 L 61.00,118.00 L 60.00,118.00 L 59.00,118.00 L 58.00,117.00 L 58.00,116.00 L 58.00,115.00 L 58.00,114.00 L 58.00,113.00 L 58.00,112.00 L 58.00,111.00 L 58.00,110.00 L 58.00,109.00 L 58.00,108.00 L 58.00,107.00 L 58.00,106.00 L 58.00,105.00 L 58.00,104.00 L 58.00,103.00 L 58.00,102.00 L 58.00,101.00 L 58.00,100.00 L 58.00,99.00 L 58.00,98.00 L 58.00,97.00 L 58.00,96.00 L 58.00,95.00 L 58.00,94.00 L 58.00,93.00 L 58.00,92.00 L 58.00,91.00 L 58.00,90.00 L 58.00,89.00 L 58.00,88.00 L 59.00,87.00 L 59.00,87.00 L 60.00,86.00 L 61.00,86.00 L 62.00,86.00 L 63.00,86.00 L 64.00,86.00 L 65.00,87.00 L 65.00,87.00 L 66.00,88.00 L 66.00,89.00 L 66.00,90.00 L 66.00,91.00 L 66.00,92.00 L 66.00,93.00 L 66.00,94.00 L 66.00,94.00 L 67.00,94.00 L 68.00,94.00 L 69.00,94.00 L 70.00,94.00 L 71.00,94.00 L 72.00,94.00 L 73.00,94.00 L 74.00,95.00 L 74.00,96.00 L 74.00,97.00 L 74.00,98.00 L 74.00,99.00 L 74.00,100.00 L 74.00,101.00 L 74.00,102.00 L 73.00,103.00 L 72.00,103.00 L 71.00,103.00 L 70.00,103.00 L 69.00,103.00 L 68.00,103.00 L 67.00,102.00 L 67.00,102.00 L 67.00,102.00 L 66.00,103.00 L 66.00,103.00 L 66.00,104.00 L 66.00,105.00 L 66.00,106.00 L 66.00,107.00 L 66.00,108.00 L 66.00,109.00 L 66.00,110.00 L 66.00,111.00 L 66.00,112.00 L 66.00,113.00 L 66.00,114.00 L 66.00,115.00 L 66.00,116.00 L 66.00,117.00 L 65.00,118.00 Z" fill="black" stroke="black" stroke-width="0.5" /><path d="M 88.00,118.00 L 87.00,118.00 L 86.00,118.00 L 85.00,118.00 L 84.00,118.00 L 83.00,118.00 L 82.00,118.00 L 81.00,117.00 L 81.00,116.00 L 81.00,115.00 L 81.00,114.00 L 81.00,113.00 L 81.00,112.00 L 81.00,111.00 L 81.00,111.00 L 80.00,110.00 L 80.00,110.00 L 79.00,110.00 L 78.00,110.00 L 77.00,110.00 L 76.00,110.00 L 75.00,110.00 L 74.00,110.00 L 73.00,109.00 L 73.00,108.00 L 73.00,107.00 L 73.00,106.00 L 73.00,105.00 L 73.00,104.00 L 73.00,103.00 L 74.00,102.00 L 75.00,102.00 L 76.00,102.00 L 77.00,102.00 L 78.00,102.00 L 79.00,102.00 L 80.00,102.00 L 80.00,102.00 L 81.00,101.00 L 81.00,101.00 L 81.00,100.00 L 81.00,99.00 L 81.00,98.00 L 81.00,97.00 L 81.00,96.00 L 81.00,95.00 L 81.00,94.00 L 81.00,93.00 L 81.00,92.00 L 81.00,91.00 L 81.00,90.00 L 81.00,89.00 L 81.00,88.00 L 81.00,87.00 L 82.00,86.00 L 83.00,86.00 L 84.00,86.00 L 85.00,86.00 L 86.00,86.00 L 87.00,86.00 L 88.00,87.00 L 88.00,87.00 L 89.00,88.00 L 89.00,89.00 L 89.00,90.00 L 89.00,91.00 L 89.00,92.00 L 89.00,93.00 L 89.00,94.00 L 89.00,95.00 L 89.00,96.00 L 89.00,97.00 L 89.00,98.00 L 89.00,99.00 L 89.00,100.00 L 89.00,101.00 L 89.00,102.00 L 89.00,103.00 L 89.00,104.00 L 89.00,105.00 L 89.00,106.00 L 89.00,107.00 L 89.00,108.00 L 89.00,109.00 L 89.00,110.00 L 89.00,111.00 L 89.00,112.00 L 89.00,113.00 L 89.00,114.00 L 89.00,115.00 L 89.00,116.00 L 89.00,117.00 L 88.00,118.00 Z" fill="black" stroke="black" stroke-width="0.5" /></svg>