
<svg xmlns="http://www.w3.org/2000/svg" viewBox="0 0 200 200" width="200" height="200">
  <defs>
    <linearGradient id="grad1" x1="0%" y1="0%" x2="0%" y2="100%">
      <stop offset="0%" style="stop-color:#fbb03b;stop-opacity:1" />
      <stop offset="100%" style="stop-color:#f15a24;stop-opacity:1" />
    </linearGradient>
  </defs>
  <rect width="200" height="200" fill="url(#grad1)" rx="20" />
  <text x="50%" y="45%" dominant-baseline="middle" text-anchor="middle"
        font-size="48" font-family="Arial" fill="white">KDP</text>
  <!-- Flèche Amazon (corps + tête) -->
  <g transform="translate(35, 20) scale(0.5)">
<path d="m221.503 210.324c-105.235 50.083-170.545 8.18-212.352-17.271-2.587-1.604-6.984.375-3.169 4.757 13.928 16.888 59.573 57.593 119.153 57.593 59.621 0 95.09-32.532 99.527-38.207 4.407-5.627 1.294-8.731-3.16-6.872zm29.555-16.322c-2.826-3.68-17.184-4.366-26.22-3.256-9.05 1.078-22.634 6.609-21.453 9.93.606 1.244 1.843.686 8.06.127 6.234-.622 23.698-2.826 27.337 1.931 3.656 4.79-5.57 27.608-7.255 31.288-1.628 3.68.622 4.629 3.68 2.178 3.016-2.45 8.476-8.795 12.14-17.774 3.639-9.028 5.858-21.622 3.71-24.424z" fill="#fff" fill-rule="nonzero"/>
</g>

</svg>
